<?xml version="1.0" encoding="UTF-8"?>
<svg width="279px" height="24px" viewBox="0 0 279 24" version="1.1" xmlns="http://www.w3.org/2000/svg" xmlns:xlink="http://www.w3.org/1999/xlink">
    <!-- Generator: Sketch 52.6 (67491) - http://www.bohemiancoding.com/sketch -->
    <title>ac-logo</title>
    <desc>Created with Sketch.</desc>
    <g id="Page-1" stroke="none" stroke-width="1" fill="none" fill-rule="evenodd">
        <g id="ac-logo" fill="#2D3737" fill-rule="nonzero">
            <path d="M278.925,6.115 L266.98,6.115 C266.492,6.115 266.023,6.367 265.714,6.747 L261.747,11.637 L263.887,0.017 L253.407,0.017 C252.647,0.017 251.925,0.633 251.797,1.394 L247.602,23.868 L258.14,23.868 C258.9,23.868 259.62,23.251 259.748,22.49 L260.718,17.255 L262.903,23.868 L276.243,23.868 L271.168,14.3 L278.925,6.115 Z M242.613,8.606 L243.071,6.116 L232.535,6.116 C231.775,6.116 231.055,6.732 230.925,7.493 L227.91,23.868 L238.438,23.868 C239.198,23.868 239.918,23.251 240.048,22.491 L241,17.075 C241.296,15.305 242.97,13.87 244.74,13.87 C245.442,13.87 246.054,14.095 246.517,14.478 L248.082,6.055 C243.998,6.583 242.612,8.605 242.612,8.605 L242.613,8.606 Z M215.223,12.877 L214.445,17.107 C214.155,18.677 213.193,18.677 212.508,18.677 C211.858,18.677 210.888,18.677 211.175,17.107 L211.955,12.877 C212.257,11.31 213.009,11.307 213.87,11.307 C214.677,11.307 215.513,11.31 215.223,12.877 Z M217.528,6.113 L217.528,6.115 C216.768,6.115 216.048,6.732 215.92,7.493 L215.884,7.699 C215.884,7.699 215.34,6.115 212.964,6.115 L205.736,6.115 C202.529,6.115 201.532,7.581 201.126,9.747 L199.196,20.235 C198.786,22.398 199.516,23.868 202.5,23.868 L209.712,23.865 C212.115,23.865 213.232,22.103 213.232,22.103 L212.906,23.865 L223.426,23.867 C224.186,23.867 224.909,23.247 225.036,22.487 L228.051,6.11 L217.53,6.11 L217.528,6.113 Z M189.262,0.016 C188.502,0.016 187.782,0.633 187.654,1.394 L183.514,23.869 L194.05,23.869 C194.81,23.869 195.533,23.249 195.66,22.489 L199.8,0.017 L189.262,0.017 L189.262,0.016 Z M167.638,0.018 L167.638,0.015 C165.65,0.015 163.768,1.627 163.434,3.615 L160.358,20.267 C160.026,22.254 161.368,23.867 163.358,23.867 L179.281,23.869 L179.303,23.869 C179.956,23.862 180.497,23.404 180.633,22.792 L180.643,22.737 L181.52,17.973 L174.07,17.969 C173.31,17.969 172.796,17.353 172.923,16.592 L174.638,7.288 C174.765,6.525 175.485,5.908 176.246,5.908 L182.403,5.908 C183.163,5.908 183.883,5.291 184.011,4.528 L184.829,0.014 L167.639,0.016 L167.638,0.018 Z M141.03,12.877 L140.25,17.107 C139.962,18.677 139,18.677 138.315,18.677 C137.665,18.677 136.691,18.677 136.982,17.107 L137.76,12.877 C138.062,11.31 138.817,11.307 139.677,11.307 C140.482,11.307 141.319,11.31 141.031,12.877 L141.03,12.877 Z M144.46,0.017 C143.7,0.017 142.98,0.633 142.85,1.394 L141.674,7.7 C141.674,7.7 141.147,6.116 138.771,6.116 L131.544,6.116 C128.337,6.116 127.339,7.582 126.934,9.748 L125,20.236 C124.595,22.399 125.32,23.869 128.306,23.869 L135.518,23.866 C137.923,23.866 139.035,22.104 139.035,22.104 L138.712,23.866 L149.232,23.868 C149.992,23.868 150.714,23.248 150.842,22.488 L154.983,0.016 L144.457,0.016 L144.46,0.017 Z M115.068,0.016 C114.308,0.016 113.588,0.633 113.46,1.394 L109.32,23.869 L119.856,23.869 C120.616,23.869 121.338,23.249 121.466,22.489 L125.603,0.017 L115.067,0.017 L115.068,0.016 Z M97.61,12.876 L96.83,17.106 C96.54,18.676 95.578,18.676 94.895,18.676 C94.245,18.676 93.27,18.676 93.561,17.106 L94.341,12.876 C94.643,11.308 95.396,11.306 96.256,11.306 C97.063,11.306 97.899,11.308 97.611,12.876 L97.61,12.876 Z M105.496,6.116 L88.856,6.116 C85.674,6.116 84.676,7.581 84.271,9.748 L82.354,20.235 C81.934,22.398 82.659,23.867 85.644,23.867 L102.238,23.869 C105.465,23.866 106.463,22.397 106.881,20.234 L108.818,9.747 C109.206,7.58 108.478,6.114 105.496,6.114 L105.496,6.116 Z M75.372,5.764 C69.564,5.764 67.404,7.774 67.404,7.774 L67.711,6.114 L58.006,6.114 C57.246,6.114 56.526,6.732 56.398,7.494 L53.333,23.867 L62.961,23.867 C63.721,23.867 64.441,23.251 64.571,22.49 L66.297,13.168 C66.297,13.168 66.643,11.301 68.421,11.301 C69.895,11.301 69.661,12.574 69.661,12.574 L67.561,23.869 L77.211,23.869 C77.973,23.869 78.694,23.252 78.821,22.491 L80.888,11.271 C81.518,7.751 79.121,5.765 75.373,5.765 L75.372,5.764 Z M48.433,8.606 L48.893,6.116 L38.353,6.116 C37.593,6.116 36.873,6.732 36.746,7.493 L33.73,23.868 L44.26,23.868 C45.02,23.868 45.74,23.251 45.867,22.491 L46.821,17.075 C47.118,15.305 48.791,13.87 50.561,13.87 C51.264,13.87 51.876,14.095 52.339,14.478 L53.904,6.055 C49.82,6.583 48.434,8.605 48.434,8.605 L48.433,8.606 Z M20.314,13.973 L16.658,13.973 C16.658,13.973 18.67,9.277 19.511,7.447 C19.901,6.657 20.741,6.087 21.615,6.087 L22.093,6.087 L20.315,13.973 L20.314,13.973 Z M15.85,0 C13.07,0 10.412,1.827 9.2,4.347 L0,23.867 L10.826,23.867 C11.702,23.867 12.541,23.285 12.913,22.487 L14.076,19.824 L19.016,19.82 L18.118,23.864 L29.281,23.866 L29.281,23.864 C30.041,23.864 30.763,23.247 30.891,22.487 L35.03,0 L15.85,0 Z" id="Shape"></path>
        </g>
    </g>
</svg>